<svg xmlns="http://www.w3.org/2000/svg" xmlns:xlink="http://www.w3.org/1999/xlink" width="500" zoomAndPan="magnify" viewBox="0 0 375 374.999991" height="500" preserveAspectRatio="xMidYMid meet" version="1.0"><defs><clipPath id="fc0379850f"><path d="M 9 223 L 164 223 L 164 354.378906 L 9 354.378906 Z M 9 223 " clip-rule="nonzero"/></clipPath><clipPath id="0f8dbca200"><path d="M 177 223 L 332 223 L 332 354.378906 L 177 354.378906 Z M 177 223 " clip-rule="nonzero"/></clipPath><clipPath id="c87320a7bc"><path d="M 0.875 0.238281 L 340.441406 0.238281 L 340.441406 184 L 0.875 184 Z M 0.875 0.238281 " clip-rule="nonzero"/></clipPath><clipPath id="84848226ef"><path d="M 55.660156 43.382812 L 285.691406 43.382812 L 285.691406 273.414062 L 55.660156 273.414062 Z M 55.660156 43.382812 " clip-rule="nonzero"/></clipPath><clipPath id="b65a17fc5a"><rect x="0" width="341" y="0" height="355"/></clipPath></defs><g transform="matrix(1, 0, 0, 1, 17, 6)"><g clip-path="url(#b65a17fc5a)"><g clip-path="url(#fc0379850f)"><path fill="#006241" d="M 160.480469 335.554688 C 160.78125 327.09375 159.722656 319.363281 157.351562 312.414062 L 157.339844 312.308594 L 157.320312 312.320312 C 152.460938 298.160156 142.050781 287.304688 125.929688 280.53125 C 123.496094 279.511719 121.039062 278.558594 118.5625 277.632812 C 111.761719 274.125 104.410156 271.460938 96.671875 269.457031 C 93.507812 268.636719 90.386719 267.753906 87.308594 266.773438 C 78.40625 263.9375 69.894531 260.292969 61.96875 255.058594 C 57.855469 252.332031 55.339844 253.496094 54.472656 258.363281 C 54.140625 260.246094 54.355469 262.453125 55.023438 264.257812 C 56.253906 267.632812 57.898438 270.644531 59.9375 273.285156 C 62.511719 276.625 65.730469 279.347656 69.515625 281.480469 C 70.800781 282.203125 72.132812 282.882812 73.554688 283.464844 C 79.71875 285.996094 86.167969 287.847656 92.457031 290.121094 C 94.621094 290.902344 96.984375 291.699219 98.621094 293.191406 C 99.890625 294.355469 101.046875 296.875 100.613281 298.300781 C 100.214844 299.628906 97.707031 301.042969 96.050781 301.144531 C 93.023438 301.332031 89.835938 300.929688 86.890625 300.148438 C 84.933594 299.628906 83.023438 299.019531 81.148438 298.359375 C 70.542969 294.636719 61.300781 288.546875 54.628906 279.257812 C 46.515625 267.957031 39.546875 255.824219 32.230469 243.96875 C 27.558594 236.394531 22.796875 228.871094 14.863281 224.332031 C 13.375 223.484375 11.503906 223.28125 9.636719 223.085938 C 8.863281 227.597656 8.875 232.304688 9.824219 237.195312 C 12.414062 243.953125 15.011719 250.699219 17.8125 257.355469 C 19.460938 261.277344 21.171875 265.167969 23.015625 269 C 31.234375 286.128906 41.355469 302.109375 55.953125 314.824219 C 67.777344 325.113281 94.867188 338.464844 94.925781 338.472656 C 123.445312 354.183594 156.832031 352.949219 156.832031 352.949219 L 163.03125 354.398438 Z M 160.480469 335.554688 " fill-opacity="1" fill-rule="nonzero"/></g><g clip-path="url(#0f8dbca200)"><path fill="#006241" d="M 180.496094 335.554688 C 180.199219 327.09375 181.253906 319.363281 183.628906 312.414062 L 183.640625 312.308594 L 183.660156 312.320312 C 188.523438 298.160156 198.925781 287.304688 215.046875 280.53125 C 217.480469 279.511719 219.933594 278.558594 222.417969 277.632812 C 229.21875 274.125 236.566406 271.460938 244.304688 269.457031 C 247.464844 268.636719 250.59375 267.753906 253.671875 266.773438 C 262.574219 263.9375 271.085938 260.292969 279.011719 255.058594 C 283.117188 252.332031 285.640625 253.496094 286.507812 258.363281 C 286.835938 260.246094 286.621094 262.453125 285.953125 264.257812 C 284.726562 267.632812 283.078125 270.644531 281.042969 273.285156 C 278.464844 276.625 275.246094 279.347656 271.460938 281.480469 C 270.175781 282.203125 268.84375 282.882812 267.421875 283.464844 C 261.253906 285.996094 254.808594 287.847656 248.519531 290.121094 C 246.355469 290.902344 243.992188 291.699219 242.355469 293.191406 C 241.085938 294.355469 239.925781 296.875 240.367188 298.300781 C 240.761719 299.628906 243.269531 301.042969 244.925781 301.144531 C 247.957031 301.332031 251.144531 300.929688 254.089844 300.148438 C 256.042969 299.628906 257.949219 299.019531 259.828125 298.359375 C 270.429688 294.636719 279.675781 288.546875 286.351562 279.257812 C 294.457031 267.957031 301.429688 255.824219 308.742188 243.96875 C 313.417969 236.394531 318.175781 228.871094 326.109375 224.332031 C 327.605469 223.484375 329.472656 223.28125 331.34375 223.085938 C 332.113281 227.597656 332.101562 232.304688 331.152344 237.195312 C 328.566406 243.953125 325.960938 250.699219 323.167969 257.355469 C 321.511719 261.277344 319.804688 265.167969 317.964844 269 C 309.738281 286.128906 299.625 302.109375 285.019531 314.824219 C 273.199219 325.113281 246.105469 338.464844 246.054688 338.472656 C 217.527344 354.183594 184.144531 352.949219 184.144531 352.949219 L 177.945312 354.398438 Z M 180.496094 335.554688 " fill-opacity="1" fill-rule="nonzero"/></g><g clip-path="url(#c87320a7bc)"><path fill="#006241" d="M 340.082031 169.902344 C 340.082031 174.582031 339.882812 179.226562 339.539062 183.808594 C 338.09375 92.417969 262.984375 18.792969 170.492188 18.792969 C 77.996094 18.792969 2.890625 92.417969 1.441406 183.808594 C 1.097656 179.226562 0.890625 174.582031 0.890625 169.902344 C 0.890625 76.238281 76.824219 0.300781 170.492188 0.300781 C 264.152344 0.300781 340.082031 76.238281 340.082031 169.902344 Z M 340.082031 169.902344 " fill-opacity="1" fill-rule="nonzero"/></g><g clip-path="url(#84848226ef)"><path fill="#006241" d="M 285.300781 150.84375 L 285.300781 165.539062 L 285.070312 165.539062 C 284.917969 168.179688 284.652344 170.785156 284.304688 173.347656 L 284.535156 173.386719 L 283.503906 178.515625 C 283.234375 179.96875 282.96875 181.421875 282.621094 182.878906 L 281.628906 187.8125 L 281.4375 187.777344 C 280.746094 190.300781 280.019531 192.828125 279.179688 195.277344 L 279.371094 195.351562 L 277.53125 199.792969 C 276.921875 201.363281 276.269531 202.929688 275.582031 204.5 L 273.742188 208.976562 L 273.550781 208.902344 C 272.40625 211.234375 271.140625 213.570312 269.839844 215.828125 L 270.03125 215.941406 L 266.855469 220.726562 C 266.320312 221.566406 265.746094 222.410156 265.171875 223.253906 L 261.878906 228.1875 L 261.6875 228.035156 C 260.082031 230.101562 258.4375 232.128906 256.714844 234.082031 L 256.90625 234.234375 L 251.738281 239.402344 C 251.738281 239.402344 251.699219 239.441406 251.699219 239.441406 L 246.535156 244.605469 L 246.382812 244.414062 C 244.429688 246.136719 242.402344 247.820312 240.335938 249.390625 L 240.488281 249.582031 L 235.550781 252.875 C 234.707031 253.449219 233.90625 253.984375 233.0625 254.558594 L 228.277344 257.773438 L 228.164062 257.582031 C 225.90625 258.882812 223.609375 260.144531 221.238281 261.292969 L 221.3125 261.484375 L 216.835938 263.320312 C 215.265625 264.011719 213.738281 264.660156 212.128906 265.273438 L 207.691406 267.109375 L 207.613281 266.917969 C 205.164062 267.761719 202.636719 268.527344 200.113281 269.175781 L 200.152344 269.367188 L 195.214844 270.363281 C 193.757812 270.667969 192.304688 270.976562 190.851562 271.242188 L 185.722656 272.277344 L 185.683594 272.046875 C 183.121094 272.390625 180.519531 272.660156 177.878906 272.8125 L 177.878906 273.042969 L 163.144531 273.042969 L 163.144531 272.8125 C 160.503906 272.660156 157.902344 272.390625 155.335938 272.046875 L 155.296875 272.277344 L 150.167969 271.242188 C 148.714844 270.976562 147.261719 270.707031 145.808594 270.363281 L 140.871094 269.367188 L 140.910156 269.175781 C 138.382812 268.488281 135.855469 267.761719 133.40625 266.917969 L 133.332031 267.109375 L 128.890625 265.273438 C 127.324219 264.660156 125.753906 264.011719 124.183594 263.320312 L 119.707031 261.445312 L 119.820312 261.253906 C 117.488281 260.105469 115.152344 258.84375 112.894531 257.542969 L 112.78125 257.734375 L 108.035156 254.558594 C 107.152344 253.984375 106.3125 253.410156 105.46875 252.835938 L 100.570312 249.542969 L 100.726562 249.351562 C 98.660156 247.746094 96.628906 246.097656 94.679688 244.378906 L 94.523438 244.570312 L 89.320312 239.363281 L 84.117188 234.160156 L 84.308594 234.007812 C 82.585938 232.054688 80.902344 230.027344 79.332031 227.960938 L 79.140625 228.113281 L 75.847656 223.175781 C 75.273438 222.332031 74.699219 221.492188 74.128906 220.613281 L 70.949219 215.828125 L 71.140625 215.714844 C 69.839844 213.453125 68.578125 211.160156 67.429688 208.785156 L 67.238281 208.863281 L 65.363281 204.386719 C 64.675781 202.855469 64.023438 201.285156 63.410156 199.679688 L 61.613281 195.316406 L 61.804688 195.238281 C 60.960938 192.789062 60.195312 190.261719 59.546875 187.738281 L 59.355469 187.777344 L 58.359375 182.878906 C 58.054688 181.421875 57.746094 179.96875 57.480469 178.515625 L 56.445312 173.386719 L 56.675781 173.347656 C 56.332031 170.785156 56.0625 168.179688 55.910156 165.539062 L 55.679688 165.539062 L 55.679688 150.84375 L 131.035156 156.472656 C 131.109375 155.015625 131.226562 153.601562 131.457031 152.222656 L 56.445312 143.039062 L 57.902344 135.804688 L 59.355469 128.570312 L 132.144531 148.777344 C 132.488281 147.402344 132.910156 146.023438 133.371094 144.683594 L 61.613281 121.070312 L 67.277344 107.445312 L 134.746094 141.46875 C 135.359375 140.167969 136.011719 138.90625 136.773438 137.71875 L 70.949219 100.519531 L 75.046875 94.398438 L 79.140625 88.273438 L 138.6875 134.808594 C 139.53125 133.660156 140.449219 132.550781 141.40625 131.519531 L 84.117188 82.226562 L 89.320312 77.023438 L 94.523438 71.816406 L 143.816406 129.070312 C 144.851562 128.113281 145.960938 127.195312 147.109375 126.351562 L 100.570312 66.804688 L 106.695312 62.710938 L 112.816406 58.613281 L 150.015625 124.402344 C 151.242188 123.671875 152.464844 122.984375 153.765625 122.371094 L 119.746094 54.941406 L 133.371094 49.277344 L 156.980469 121.070312 C 158.320312 120.574219 159.660156 120.191406 161.078125 119.847656 L 140.871094 47.019531 L 148.101562 45.5625 L 155.296875 44.148438 L 164.484375 119.15625 C 165.859375 118.929688 167.277344 118.8125 168.730469 118.738281 L 163.144531 43.382812 L 177.839844 43.382812 L 172.214844 118.738281 C 173.667969 118.8125 175.082031 118.929688 176.460938 119.15625 L 185.644531 44.148438 L 200.113281 47.054688 L 179.90625 119.847656 C 181.285156 120.191406 182.660156 120.613281 184 121.070312 L 207.613281 49.316406 L 214.425781 52.148438 L 221.238281 54.976562 L 187.214844 122.449219 C 188.515625 123.0625 189.78125 123.710938 190.964844 124.476562 L 228.164062 58.691406 L 234.289062 62.785156 L 240.410156 66.878906 L 193.875 126.351562 C 195.023438 127.195312 196.132812 128.113281 197.164062 129.070312 L 246.457031 71.816406 L 256.867188 82.226562 L 199.613281 131.519531 C 200.570312 132.550781 201.488281 133.660156 202.332031 134.808594 L 261.878906 88.273438 L 265.976562 94.398438 L 270.070312 100.519531 L 204.285156 137.71875 C 205.011719 138.941406 205.699219 140.167969 206.3125 141.46875 L 273.78125 107.445312 L 279.445312 121.070312 L 207.613281 144.683594 C 208.109375 146.023438 208.492188 147.363281 208.839844 148.777344 L 281.628906 128.570312 L 284.535156 143.039062 L 209.527344 152.222656 C 209.757812 153.601562 209.871094 155.015625 209.949219 156.472656 Z M 285.300781 150.84375 " fill-opacity="1" fill-rule="nonzero"/></g></g></g></svg>